<mxfile host="app.diagrams.net" modified="2022-10-26T08:22:25.241Z" agent="5.0 (Windows NT 10.0; Win64; x64) AppleWebKit/537.36 (KHTML, like Gecko) Chrome/106.0.0.0 Safari/537.36 Edg/106.0.1370.52" etag="Ba879G93-dDNNGRcG8w_" version="20.5.1" type="github">
  <diagram id="kgpKYQtTHZ0yAKxKKP6v" name="Page-1">
    <mxGraphModel dx="1298" dy="684" grid="1" gridSize="10" guides="1" tooltips="1" connect="1" arrows="1" fold="1" page="1" pageScale="1" pageWidth="900" pageHeight="700" background="#F1FAEE" math="0" shadow="0">
      <root>
        <mxCell id="0" />
        <mxCell id="1" parent="0" />
        <mxCell id="3nuBFxr9cyL0pnOWT2aG-5" value=":Frontend" style="shape=umlLifeline;perimeter=lifelinePerimeter;container=1;collapsible=0;recursiveResize=0;shadow=0;strokeWidth=1;fillColor=#A8DADC;strokeColor=#457B9D;fontColor=#1D3557;" parent="1" vertex="1">
          <mxGeometry x="190" y="80" width="100" height="530" as="geometry" />
        </mxCell>
        <mxCell id="kSekGtJbtRoE3fKYx9vQ-12" value="" style="html=1;points=[];perimeter=orthogonalPerimeter;strokeColor=#457B9D;fillColor=#A8DADC;gradientDirection=west;fontColor=#1D3557;" vertex="1" parent="3nuBFxr9cyL0pnOWT2aG-5">
          <mxGeometry x="45" y="60" width="10" height="80" as="geometry" />
        </mxCell>
        <mxCell id="kSekGtJbtRoE3fKYx9vQ-19" value="" style="html=1;points=[];perimeter=orthogonalPerimeter;strokeColor=#457B9D;fillColor=#A8DADC;gradientDirection=west;fontColor=#1D3557;" vertex="1" parent="3nuBFxr9cyL0pnOWT2aG-5">
          <mxGeometry x="45" y="210" width="10" height="310" as="geometry" />
        </mxCell>
        <mxCell id="kSekGtJbtRoE3fKYx9vQ-4" value="SD: add TuDu-item to a list" style="text;strokeColor=#457B9D;fillColor=#A8DADC;html=1;fontSize=24;fontStyle=1;verticalAlign=middle;align=center;gradientDirection=west;fontColor=#1D3557;" vertex="1" parent="1">
          <mxGeometry x="10" y="10" width="880" height="40" as="geometry" />
        </mxCell>
        <mxCell id="kSekGtJbtRoE3fKYx9vQ-9" value=":Backend" style="shape=umlLifeline;perimeter=lifelinePerimeter;whiteSpace=wrap;html=1;container=1;collapsible=0;recursiveResize=0;outlineConnect=0;strokeColor=#457B9D;fillColor=#A8DADC;gradientDirection=west;fontColor=#1D3557;" vertex="1" parent="1">
          <mxGeometry x="320" y="160" width="100" height="410" as="geometry" />
        </mxCell>
        <mxCell id="kSekGtJbtRoE3fKYx9vQ-38" value="" style="group;fontColor=#1D3557;" vertex="1" connectable="0" parent="kSekGtJbtRoE3fKYx9vQ-9">
          <mxGeometry x="-40" y="200" width="370" height="190" as="geometry" />
        </mxCell>
        <mxCell id="kSekGtJbtRoE3fKYx9vQ-35" value="" style="group;fontColor=#1D3557;" vertex="1" connectable="0" parent="kSekGtJbtRoE3fKYx9vQ-38">
          <mxGeometry width="370" height="190" as="geometry" />
        </mxCell>
        <mxCell id="kSekGtJbtRoE3fKYx9vQ-27" value="usr auth" style="shape=umlFrame;whiteSpace=wrap;html=1;strokeColor=#457B9D;fillColor=#A8DADC;gradientDirection=west;container=1;fontColor=#1D3557;" vertex="1" parent="kSekGtJbtRoE3fKYx9vQ-35">
          <mxGeometry width="370" height="190" as="geometry" />
        </mxCell>
        <mxCell id="kSekGtJbtRoE3fKYx9vQ-28" value="auth O.K." style="text;strokeColor=none;fillColor=none;align=left;verticalAlign=top;spacingLeft=4;spacingRight=4;overflow=hidden;rotatable=0;points=[[0,0.5],[1,0.5]];portConstraint=eastwest;fontColor=#1D3557;" vertex="1" parent="kSekGtJbtRoE3fKYx9vQ-27">
          <mxGeometry x="8.40909090909091" y="40" width="69.375" height="26" as="geometry" />
        </mxCell>
        <mxCell id="kSekGtJbtRoE3fKYx9vQ-30" value="auth FAIL" style="text;strokeColor=none;fillColor=none;align=left;verticalAlign=top;spacingLeft=4;spacingRight=4;overflow=hidden;rotatable=0;points=[[0,0.5],[1,0.5]];portConstraint=eastwest;fontColor=#1D3557;" vertex="1" parent="kSekGtJbtRoE3fKYx9vQ-27">
          <mxGeometry x="8.40909090909091" y="120" width="80.9375" height="26" as="geometry" />
        </mxCell>
        <mxCell id="kSekGtJbtRoE3fKYx9vQ-29" value="" style="line;strokeWidth=1;fillColor=none;align=left;verticalAlign=middle;spacingTop=-1;spacingLeft=3;spacingRight=3;rotatable=0;labelPosition=right;points=[];portConstraint=eastwest;strokeColor=#457B9D;labelBackgroundColor=#F1FAEE;fontColor=#1D3557;" vertex="1" parent="kSekGtJbtRoE3fKYx9vQ-35">
          <mxGeometry y="100" width="370" height="8" as="geometry" />
        </mxCell>
        <mxCell id="kSekGtJbtRoE3fKYx9vQ-37" value="" style="endArrow=none;dashed=1;html=1;labelBackgroundColor=#F1FAEE;strokeColor=#457B9D;fontColor=#1D3557;rounded=0;" edge="1" parent="kSekGtJbtRoE3fKYx9vQ-35" target="kSekGtJbtRoE3fKYx9vQ-27">
          <mxGeometry width="50" height="50" relative="1" as="geometry">
            <mxPoint y="100" as="sourcePoint" />
            <mxPoint x="219.6875" y="80" as="targetPoint" />
          </mxGeometry>
        </mxCell>
        <mxCell id="kSekGtJbtRoE3fKYx9vQ-24" value="" style="html=1;points=[];perimeter=orthogonalPerimeter;strokeColor=#457B9D;fillColor=#A8DADC;gradientDirection=west;fontColor=#1D3557;" vertex="1" parent="kSekGtJbtRoE3fKYx9vQ-9">
          <mxGeometry x="45" y="140" width="10" height="230" as="geometry" />
        </mxCell>
        <mxCell id="kSekGtJbtRoE3fKYx9vQ-10" value=":DB" style="shape=umlLifeline;perimeter=lifelinePerimeter;whiteSpace=wrap;html=1;container=1;collapsible=0;recursiveResize=0;outlineConnect=0;strokeColor=#457B9D;fillColor=#A8DADC;gradientDirection=west;fontColor=#1D3557;" vertex="1" parent="1">
          <mxGeometry x="560" y="160" width="100" height="410" as="geometry" />
        </mxCell>
        <mxCell id="kSekGtJbtRoE3fKYx9vQ-45" value="" style="html=1;points=[];perimeter=orthogonalPerimeter;strokeColor=#457B9D;fillColor=#A8DADC;gradientDirection=west;fontColor=#1D3557;" vertex="1" parent="kSekGtJbtRoE3fKYx9vQ-10">
          <mxGeometry x="45" y="230" width="10" height="63" as="geometry" />
        </mxCell>
        <mxCell id="kSekGtJbtRoE3fKYx9vQ-11" value="" style="shape=umlLifeline;participant=umlActor;perimeter=lifelinePerimeter;whiteSpace=wrap;html=1;container=1;collapsible=0;recursiveResize=0;verticalAlign=top;spacingTop=36;outlineConnect=0;strokeColor=#457B9D;fillColor=#A8DADC;gradientDirection=west;fontColor=#1D3557;" vertex="1" parent="1">
          <mxGeometry x="70" y="80" width="20" height="530" as="geometry" />
        </mxCell>
        <mxCell id="kSekGtJbtRoE3fKYx9vQ-17" value="" style="html=1;points=[];perimeter=orthogonalPerimeter;strokeColor=#457B9D;fillColor=#A8DADC;gradientDirection=west;fontColor=#1D3557;" vertex="1" parent="kSekGtJbtRoE3fKYx9vQ-11">
          <mxGeometry x="10" y="180" width="10" height="40" as="geometry" />
        </mxCell>
        <mxCell id="kSekGtJbtRoE3fKYx9vQ-18" value="fill out form" style="edgeStyle=orthogonalEdgeStyle;html=1;align=left;spacingLeft=2;endArrow=block;entryX=1;entryY=0;labelBackgroundColor=#F1FAEE;strokeColor=#457B9D;fontColor=#1D3557;rounded=0;" edge="1" target="kSekGtJbtRoE3fKYx9vQ-17" parent="kSekGtJbtRoE3fKYx9vQ-11" source="kSekGtJbtRoE3fKYx9vQ-11">
          <mxGeometry relative="1" as="geometry">
            <mxPoint x="134.97" y="140" as="sourcePoint" />
            <Array as="points">
              <mxPoint x="50" y="160" />
              <mxPoint x="50" y="180" />
            </Array>
          </mxGeometry>
        </mxCell>
        <mxCell id="kSekGtJbtRoE3fKYx9vQ-13" value="addButton click" style="html=1;verticalAlign=bottom;startArrow=oval;endArrow=block;startSize=8;labelBackgroundColor=#F1FAEE;strokeColor=#457B9D;fontColor=#1D3557;rounded=0;" edge="1" target="kSekGtJbtRoE3fKYx9vQ-12" parent="1">
          <mxGeometry relative="1" as="geometry">
            <mxPoint x="80" y="156.64" as="sourcePoint" />
            <mxPoint x="236" y="157" as="targetPoint" />
          </mxGeometry>
        </mxCell>
        <mxCell id="kSekGtJbtRoE3fKYx9vQ-14" value="return" style="html=1;verticalAlign=bottom;endArrow=open;dashed=1;endSize=8;labelBackgroundColor=#F1FAEE;strokeColor=#457B9D;fontColor=#1D3557;rounded=0;" edge="1" parent="1">
          <mxGeometry relative="1" as="geometry">
            <mxPoint x="240" y="210" as="sourcePoint" />
            <mxPoint x="80" y="210" as="targetPoint" />
          </mxGeometry>
        </mxCell>
        <mxCell id="kSekGtJbtRoE3fKYx9vQ-20" value="click apply button" style="html=1;verticalAlign=bottom;endArrow=block;entryX=0;entryY=0;labelBackgroundColor=#F1FAEE;strokeColor=#457B9D;fontColor=#1D3557;rounded=0;" edge="1" target="kSekGtJbtRoE3fKYx9vQ-19" parent="1" source="kSekGtJbtRoE3fKYx9vQ-17">
          <mxGeometry relative="1" as="geometry">
            <mxPoint x="165" y="290" as="sourcePoint" />
          </mxGeometry>
        </mxCell>
        <mxCell id="kSekGtJbtRoE3fKYx9vQ-21" value="return" style="html=1;verticalAlign=bottom;endArrow=open;dashed=1;endSize=8;exitX=0;exitY=0.95;labelBackgroundColor=#F1FAEE;strokeColor=#457B9D;fontColor=#1D3557;rounded=0;" edge="1" source="kSekGtJbtRoE3fKYx9vQ-19" parent="1" target="kSekGtJbtRoE3fKYx9vQ-11">
          <mxGeometry relative="1" as="geometry">
            <mxPoint x="165" y="366" as="targetPoint" />
          </mxGeometry>
        </mxCell>
        <mxCell id="kSekGtJbtRoE3fKYx9vQ-25" value="call &lt;b&gt;/create_todo&lt;/b&gt;" style="html=1;verticalAlign=bottom;endArrow=block;entryX=0;entryY=0;labelBackgroundColor=#F1FAEE;strokeColor=#457B9D;fontColor=#1D3557;rounded=0;" edge="1" target="kSekGtJbtRoE3fKYx9vQ-24" parent="1" source="3nuBFxr9cyL0pnOWT2aG-5">
          <mxGeometry relative="1" as="geometry">
            <mxPoint x="290" y="300" as="sourcePoint" />
          </mxGeometry>
        </mxCell>
        <mxCell id="kSekGtJbtRoE3fKYx9vQ-26" value="return fail msg" style="html=1;verticalAlign=bottom;endArrow=open;dashed=1;endSize=8;exitX=0.114;exitY=0.96;exitDx=0;exitDy=0;exitPerimeter=0;labelBackgroundColor=#F1FAEE;strokeColor=#457B9D;fontColor=#1D3557;rounded=0;" edge="1" source="kSekGtJbtRoE3fKYx9vQ-24" parent="1" target="3nuBFxr9cyL0pnOWT2aG-5">
          <mxGeometry relative="1" as="geometry">
            <mxPoint x="290" y="376" as="targetPoint" />
          </mxGeometry>
        </mxCell>
        <mxCell id="kSekGtJbtRoE3fKYx9vQ-44" value=":Authenticator" style="shape=umlLifeline;perimeter=lifelinePerimeter;whiteSpace=wrap;html=1;container=1;collapsible=0;recursiveResize=0;outlineConnect=0;strokeColor=#457B9D;fillColor=#A8DADC;gradientDirection=west;fontColor=#1D3557;" vertex="1" parent="1">
          <mxGeometry x="440" y="200" width="100" height="140" as="geometry" />
        </mxCell>
        <mxCell id="kSekGtJbtRoE3fKYx9vQ-39" value="" style="html=1;points=[];perimeter=orthogonalPerimeter;strokeColor=#457B9D;fillColor=#A8DADC;gradientDirection=west;fontColor=#1D3557;" vertex="1" parent="kSekGtJbtRoE3fKYx9vQ-44">
          <mxGeometry x="45" y="100" width="10" height="30" as="geometry" />
        </mxCell>
        <mxCell id="kSekGtJbtRoE3fKYx9vQ-40" value="request usr-auth" style="html=1;verticalAlign=bottom;endArrow=block;entryX=0;entryY=0;labelBackgroundColor=#F1FAEE;strokeColor=#457B9D;fontColor=#1D3557;rounded=0;" edge="1" target="kSekGtJbtRoE3fKYx9vQ-39" parent="1" source="kSekGtJbtRoE3fKYx9vQ-9">
          <mxGeometry relative="1" as="geometry">
            <mxPoint x="420" y="260" as="sourcePoint" />
          </mxGeometry>
        </mxCell>
        <mxCell id="kSekGtJbtRoE3fKYx9vQ-41" value="return" style="html=1;verticalAlign=bottom;endArrow=open;dashed=1;endSize=8;exitX=0;exitY=0.95;labelBackgroundColor=#F1FAEE;strokeColor=#457B9D;fontColor=#1D3557;rounded=0;" edge="1" source="kSekGtJbtRoE3fKYx9vQ-39" parent="1" target="kSekGtJbtRoE3fKYx9vQ-9">
          <mxGeometry relative="1" as="geometry">
            <mxPoint x="420" y="336" as="targetPoint" />
          </mxGeometry>
        </mxCell>
        <mxCell id="kSekGtJbtRoE3fKYx9vQ-48" value="return new TuDu-item" style="html=1;verticalAlign=bottom;endArrow=open;dashed=1;endSize=8;exitX=0.195;exitY=0.734;exitDx=0;exitDy=0;exitPerimeter=0;labelBackgroundColor=#F1FAEE;strokeColor=#457B9D;fontColor=#1D3557;rounded=0;" edge="1" parent="1" source="kSekGtJbtRoE3fKYx9vQ-24" target="3nuBFxr9cyL0pnOWT2aG-5">
          <mxGeometry relative="1" as="geometry">
            <mxPoint x="370" y="470" as="sourcePoint" />
            <mxPoint x="290" y="470" as="targetPoint" />
          </mxGeometry>
        </mxCell>
        <mxCell id="kSekGtJbtRoE3fKYx9vQ-49" value="" style="line;strokeWidth=1;fillColor=none;align=left;verticalAlign=middle;spacingTop=-1;spacingLeft=3;spacingRight=3;rotatable=0;labelPosition=right;points=[];portConstraint=eastwest;strokeColor=#457B9D;labelBackgroundColor=#F1FAEE;fontColor=#1D3557;" vertex="1" parent="1">
          <mxGeometry x="280" y="480" width="370" height="8" as="geometry" />
        </mxCell>
        <mxCell id="kSekGtJbtRoE3fKYx9vQ-46" value="send data" style="html=1;verticalAlign=bottom;endArrow=block;entryX=0;entryY=0;labelBackgroundColor=#F1FAEE;strokeColor=#457B9D;fontColor=#1D3557;rounded=0;" edge="1" target="kSekGtJbtRoE3fKYx9vQ-45" parent="1" source="kSekGtJbtRoE3fKYx9vQ-24">
          <mxGeometry relative="1" as="geometry">
            <mxPoint x="357.7840909090909" y="373" as="sourcePoint" />
          </mxGeometry>
        </mxCell>
        <mxCell id="kSekGtJbtRoE3fKYx9vQ-47" value="return new TuDu-item" style="html=1;verticalAlign=bottom;endArrow=open;dashed=1;endSize=8;exitX=0;exitY=0.95;labelBackgroundColor=#F1FAEE;strokeColor=#457B9D;fontColor=#1D3557;rounded=0;" edge="1" source="kSekGtJbtRoE3fKYx9vQ-45" parent="1" target="kSekGtJbtRoE3fKYx9vQ-24">
          <mxGeometry relative="1" as="geometry">
            <mxPoint x="357.7840909090909" y="449" as="targetPoint" />
          </mxGeometry>
        </mxCell>
      </root>
    </mxGraphModel>
  </diagram>
</mxfile>
